<svg width="88" height="28" viewBox="0 0 88 28" fill="none" xmlns="http://www.w3.org/2000/svg">
<rect x="0.75" y="0.75" width="86.5" height="26.5" rx="13.25" fill="url(#paint0_linear_3712_507004)" fill-opacity="0.05"/>
<path d="M20.936 9.936H25.316C25.148 9.396 24.968 8.892 24.764 8.412L26.228 8.172C26.396 8.7 26.552 9.288 26.72 9.936H31.1V11.148H20.936V9.936ZM20.528 17.424H26.408C27.092 15.864 27.692 13.944 28.22 11.64L29.552 12C29.096 14.028 28.532 15.84 27.86 17.424H31.508V18.636H20.528V17.424ZM23.816 11.616C24.344 13.164 24.8 14.94 25.208 16.932L23.852 17.268C23.492 15.468 23.048 13.728 22.496 12.06L23.816 11.616ZM34.232 11.976V13.26H36.608V11.976H34.232ZM36.608 10.86V9.648H34.232V10.86H36.608ZM32.912 18.924L32.48 17.724C32.828 17.604 33.008 17.388 33.008 17.088V8.52H37.784V14.424H34.232V17.316C35.072 17.076 35.828 16.812 36.524 16.548C36.344 16.236 36.164 15.936 35.972 15.636L36.92 15.036C37.652 16.164 38.216 17.148 38.612 17.988L37.64 18.672C37.472 18.312 37.304 17.952 37.112 17.592C35.876 18.096 34.472 18.54 32.912 18.924ZM41.804 17.616H40.892L40.556 16.404L41.384 16.452C41.72 16.452 41.9 16.284 41.9 15.96V9.72H40.208V19.224H38.96V8.544H43.148V16.248C43.148 17.16 42.692 17.616 41.804 17.616ZM44.612 8.664H55.376V9.888H50.312V11.352C51.776 12.048 53.252 12.852 54.752 13.74L53.996 14.868C52.52 13.932 51.296 13.2 50.312 12.696V19.248H49.052V9.888H44.612V8.664ZM57.296 8.988H59.492V8.112H60.716V8.988H62.744V10.116H60.716V10.884H63.212C63.164 10.02 63.14 9.096 63.14 8.1H64.352C64.352 9.132 64.376 10.068 64.424 10.884H67.316V12.024H64.496C64.556 12.996 64.652 13.776 64.772 14.376L64.868 14.844C65.192 14.1 65.456 13.284 65.672 12.372L66.788 12.876C66.416 14.328 65.936 15.552 65.36 16.548C65.432 16.728 65.492 16.884 65.564 17.016C65.84 17.556 66.044 17.832 66.188 17.832C66.296 17.832 66.416 17.268 66.536 16.14L67.592 16.716C67.304 18.312 66.896 19.116 66.344 19.116C65.9 19.116 65.42 18.756 64.916 18.036C64.82 17.892 64.724 17.748 64.652 17.592C64.076 18.312 63.416 18.864 62.684 19.26L62 18.252C62.816 17.796 63.524 17.136 64.1 16.272C63.932 15.792 63.788 15.252 63.668 14.664C63.5 13.92 63.368 13.044 63.284 12.024H56.672V10.884H59.492V10.116H57.296V8.988ZM65.576 8.208C66.176 8.88 66.644 9.468 66.968 9.972L66.044 10.62C65.696 10.08 65.228 9.48 64.628 8.808L65.576 8.208ZM62.744 16.596V17.676C62.192 17.748 61.616 17.82 61.016 17.892V19.212H59.792V18.012C58.976 18.084 58.124 18.156 57.248 18.228L57.104 17.076C58.052 17.028 58.952 16.968 59.792 16.896V16.104H57.62L57.368 15.108C57.632 14.784 57.896 14.388 58.136 13.92H57.032V12.816H58.604C58.7 12.564 58.784 12.312 58.868 12.06L60.056 12.288C59.984 12.468 59.924 12.648 59.864 12.816H62.804V13.92H59.408C59.204 14.328 58.988 14.712 58.772 15.06H59.792V14.34H61.016V15.06H62.684V16.104H61.016V16.788C61.628 16.728 62.204 16.668 62.744 16.596Z" fill="url(#paint1_linear_3712_507004)"/>
<rect x="0.75" y="0.75" width="86.5" height="26.5" rx="13.25" stroke="url(#paint2_linear_3712_507004)" stroke-width="1.5"/>
<defs>
<linearGradient id="paint0_linear_3712_507004" x1="-6.55651e-07" y1="14" x2="88" y2="14" gradientUnits="userSpaceOnUse">
<stop stop-color="#FF6722"/>
<stop offset="1" stop-color="#FF04AC"/>
</linearGradient>
<linearGradient id="paint1_linear_3712_507004" x1="67.6667" y1="14" x2="19.6667" y2="14" gradientUnits="userSpaceOnUse">
<stop stop-color="#FF06A2"/>
<stop offset="1" stop-color="#FF6225"/>
</linearGradient>
<linearGradient id="paint2_linear_3712_507004" x1="-4.45238" y1="14" x2="87.7381" y2="14" gradientUnits="userSpaceOnUse">
<stop stop-color="#FF6722"/>
<stop offset="1" stop-color="#FF04AC"/>
</linearGradient>
</defs>
</svg>
