<svg width="79" height="22" viewBox="0 0 79 22" fill="none" xmlns="http://www.w3.org/2000/svg">
<g clip-path="url(#clip0_2281_481070)">
<path d="M78.2661 20.9016C78.2661 21.5194 77.7684 22.017 77.1506 22.017C76.5328 22.017 76.0352 21.5194 76.0352 20.9016C76.0352 20.2838 76.5328 19.7861 77.1506 19.7861C77.7684 19.7861 78.2661 20.2838 78.2661 20.9016Z" fill="black"/>
<path fill-rule="evenodd" clip-rule="evenodd" d="M67.2619 0C61.1869 0 56.2617 4.92512 56.2617 11C56.2617 17.0749 61.1869 22 67.2619 22C73.3368 22 78.262 17.0749 78.262 11C78.262 4.92512 73.3368 0 67.2619 0ZM67.2619 20.2839C62.1308 20.2839 57.9778 16.131 57.9778 11C57.9778 5.86895 62.1308 1.71607 67.2619 1.71607C72.393 1.71607 76.5459 5.86895 76.5459 11C76.5459 16.131 72.393 20.2839 67.2619 20.2839Z" fill="black"/>
<path fill-rule="evenodd" clip-rule="evenodd" d="M65.5038 16.5085C65.2636 16.9718 64.9547 17.1949 64.5428 17.1949C64.1309 17.1949 63.822 16.9718 63.5818 16.5085L59.7206 8.25418C59.4632 7.70504 59.7034 7.05293 60.2526 6.81268C60.3899 6.74404 60.5615 6.70972 60.7159 6.70972H65.3322C65.9672 6.70972 66.5506 7.07009 66.808 7.65355L66.9282 7.8938L65.9672 9.93593L65.418 8.73468C65.3322 8.54591 65.1434 8.42579 64.9203 8.42579H62.1403C61.9858 8.42579 61.8657 8.54591 61.8657 8.70036C61.8657 8.73468 61.8829 8.78616 61.8829 8.82048L64.5085 14.4663L67.6832 7.65355C67.9578 7.07009 68.5241 6.70972 69.1591 6.70972H70.7036C70.2917 6.70972 69.9313 6.94997 69.7597 7.31034L69.2277 8.44295L65.5038 16.5085ZM70.961 16.5085C70.7207 16.9718 70.4118 17.1949 70 17.1949C69.5881 17.1949 69.2792 16.9718 69.039 16.5085L67.5974 13.4195L68.5585 11.3774L70 14.4663L72.6256 8.82048C72.6942 8.6832 72.6256 8.52875 72.4883 8.46011C72.454 8.44295 72.4197 8.44295 72.3682 8.44295H69.9142L70.4462 7.31034C70.6178 6.94997 70.9781 6.70972 71.39 6.70972H73.8097C74.4103 6.70972 74.908 7.19022 74.908 7.808C74.908 7.96245 74.8737 8.11689 74.805 8.27134L70.961 16.5085Z" fill="black"/>
<path fill-rule="evenodd" clip-rule="evenodd" d="M1.117 2.677C1.73479 2.677 2.23246 3.17466 2.23246 3.79245V15.5475L7.55234 10.2277C7.75827 10.0218 8.01569 9.91881 8.2731 9.90165H8.41039C8.63348 9.91881 8.85657 9.98745 9.04534 10.1419L9.13115 10.2277L10.075 11.1715C9.78326 11.2402 9.49152 11.3946 9.25127 11.6349L3.15915 17.7269L1.94072 18.9453C1.9064 18.9797 1.85492 19.014 1.82059 19.0483C1.63182 19.2199 1.37441 19.3057 1.09983 19.3057C0.482042 19.3057 -0.015625 18.808 -0.015625 18.1903V3.77529C0.00153592 3.17466 0.499203 2.677 1.117 2.677ZM15.5322 2.677C16.15 2.677 16.6476 3.17466 16.6476 3.79245V18.2074C16.6476 18.8252 16.15 19.3229 15.5322 19.3229C15.1718 19.3229 14.8629 19.1513 14.657 18.8939L8.92521 13.1622L9.8519 12.2355C10.0064 12.0639 10.2466 11.9781 10.4869 11.9781C10.7614 11.9781 10.9845 12.0982 11.1561 12.2698L14.4167 15.5304V3.80961C14.4167 3.17466 14.9144 2.677 15.5322 2.677Z" fill="black"/>
<path fill-rule="evenodd" clip-rule="evenodd" d="M31.4719 2.677C33.9946 2.677 36.0539 4.71912 36.0539 7.2589C36.0539 9.79869 33.9946 11.8408 31.4719 11.8408H22.4624V10.7254C22.4624 10.1591 22.8915 9.67856 23.4578 9.62708H23.5779H31.4719C32.7761 9.62708 33.823 8.58028 33.823 7.27607C33.823 5.98901 32.7933 4.94221 31.5062 4.92505H31.4548H20.5061C19.8883 4.92505 19.3906 4.42739 19.3906 3.80961C19.3906 3.19182 19.8883 2.69416 20.5061 2.69416H31.4719V2.677ZM21.6215 18.2074C21.6215 18.8252 21.1239 19.3229 20.5061 19.3229C19.8883 19.3229 19.3906 18.8252 19.3906 18.2074V11.8408C19.3906 10.6224 20.386 9.62708 21.6044 9.62708H21.9476C21.7245 9.93597 21.6044 10.3307 21.6044 10.7425V18.2074H21.6215Z" fill="black"/>
<path d="M52.954 2.677C53.5718 2.677 54.0695 3.17466 54.0695 3.79245C54.0695 4.41023 53.5718 4.90789 52.954 4.90789H42.1427C40.787 4.90789 39.6715 6.00618 39.6543 7.36187V7.41335C39.6543 8.76905 40.7526 9.88449 42.1083 9.90165H42.1598H46.3128H46.5015C48.2176 9.97029 49.6935 10.9485 50.4657 12.3728C50.1397 12.2183 49.7964 12.1325 49.4189 12.1154H42.1598C39.5514 12.1154 37.4406 10.0046 37.4406 7.39619C37.4406 4.78777 39.5514 2.677 42.1598 2.677H52.954ZM49.213 9.88449H49.3331C51.9416 9.88449 54.0523 11.9953 54.0523 14.6037C54.0523 17.2121 51.9416 19.3229 49.3331 19.3229H38.5217C37.9039 19.3229 37.4062 18.8252 37.4062 18.2074C37.4062 17.5896 37.9039 17.092 38.5217 17.092H49.3331C50.6888 17.092 51.8043 15.9937 51.8214 14.638V14.5865V14.3806C51.7699 12.4929 50.7403 10.8455 49.213 9.88449Z" fill="black"/>
</g>
<defs>
<clipPath id="clip0_2281_481070">
<rect width="78.271" height="22" fill="white"/>
</clipPath>
</defs>
</svg>
