<svg width="17" height="16" viewBox="0 0 17 16" fill="none" xmlns="http://www.w3.org/2000/svg">
<g id="android 1">
<path id="Vector" d="M10.4989 3.35664V2.67H9.84357V3.35664H10.4989ZM7.15826 3.35664V2.67H6.50291V3.35664H7.15826ZM10.8426 1.45188C11.9455 2.24265 12.4969 3.31446 12.4969 4.66733H4.50491C4.50491 3.2936 5.04615 2.22178 6.12862 1.45188L5.25416 0.577423C5.08766 0.410922 5.08766 0.254856 5.25416 0.109224C5.42066 -0.036408 5.57673 -0.036408 5.72236 0.109224L6.72136 1.10823C7.2626 0.816961 7.85578 0.671329 8.50091 0.671329C9.12518 0.671329 9.70793 0.816961 10.2492 1.10823L11.2482 0.109224C11.4147 -0.036408 11.5707 -0.036408 11.7164 0.109224C11.862 0.254856 11.862 0.410922 11.7164 0.577423L10.8426 1.45188ZM14.1513 5.35465C14.4217 5.35465 14.6559 5.45344 14.8539 5.65102C15.0519 5.8486 15.1507 6.08281 15.1503 6.35365V11.005C15.1503 11.2963 15.0515 11.5356 14.8539 11.7229C14.6563 11.9103 14.4221 12.004 14.1513 12.004C13.8804 12.004 13.6462 11.9103 13.4486 11.7229C13.2511 11.5356 13.1523 11.2963 13.1523 11.005V6.35365C13.1523 6.08325 13.2511 5.84904 13.4486 5.65102C13.6462 5.45299 13.8804 5.3542 14.1513 5.35465ZM2.85056 5.35465C3.12096 5.35465 3.35517 5.45344 3.55319 5.65102C3.75122 5.8486 3.85001 6.08281 3.84956 6.35365V11.005C3.84956 11.2963 3.75077 11.5356 3.55319 11.7229C3.35561 11.9103 3.1214 12.004 2.85056 12.004C2.57972 12.004 2.34551 11.9103 2.14793 11.7229C1.95035 11.5356 1.85156 11.2963 1.85156 11.005V6.35365C1.85156 6.08325 1.95035 5.84904 2.14793 5.65102C2.34551 5.45299 2.57972 5.3542 2.85056 5.35465ZM4.50491 12.004V5.35465H12.4969V12.004C12.4969 12.1914 12.4345 12.3474 12.3098 12.4722C12.185 12.597 12.0289 12.6593 11.8416 12.6593H11.1549V15.001C11.1549 15.2923 11.0561 15.5316 10.8586 15.7189C10.661 15.9063 10.4268 16 10.1559 16C9.88508 16 9.65087 15.9063 9.45329 15.7189C9.25571 15.5316 9.15692 15.2923 9.15692 15.001V12.6593H7.84557V15.001C7.84557 15.2923 7.74678 15.5316 7.5492 15.7189C7.35162 15.9063 7.11741 16 6.84657 16C6.57573 16 6.34152 15.9063 6.14394 15.7189C5.94636 15.5316 5.84757 15.2923 5.84757 15.001V12.6593H5.16092C4.97355 12.6593 4.81749 12.597 4.69272 12.4722C4.56796 12.3474 4.50558 12.1914 4.50558 12.004H4.50491Z" fill="#333333"/>
</g>
</svg>
