<svg width="40" height="41" viewBox="0 0 40 41" fill="none" xmlns="http://www.w3.org/2000/svg">
<g clip-path="url(#clip0_2437_486595)">
<path d="M25.009 8.51184V6.79522H23.3706V8.51184H25.009ZM16.6573 8.51184V6.79522H15.019V8.51184H16.6573ZM25.8681 3.74994C28.6254 5.72685 30.004 8.40639 30.004 11.7886H10.024C10.024 8.35422 11.3771 5.67468 14.0833 3.74994L11.8971 1.56379C11.4809 1.14754 11.4809 0.757379 11.8971 0.393299C12.3134 0.0292193 12.7035 0.0292193 13.0676 0.393299L15.5651 2.8908C16.9182 2.16264 18.4011 1.79856 20.014 1.79856C21.5746 1.79856 23.0315 2.16264 24.3846 2.8908L26.8821 0.393299C27.2983 0.0292193 27.6885 0.0292193 28.0526 0.393299C28.4167 0.757379 28.4167 1.14754 28.0526 1.56379L25.8681 3.74994ZM34.1398 13.5068C34.8158 13.5068 35.4013 13.7538 35.8964 14.2478C36.3915 14.7417 36.6384 15.3272 36.6373 16.0043V27.6327C36.6373 28.3608 36.3904 28.9591 35.8964 29.4276C35.4025 29.896 34.8169 30.1302 34.1398 30.1302C33.4627 30.1302 32.8772 29.896 32.3833 29.4276C31.8893 28.9591 31.6423 28.3608 31.6423 27.6327V16.0043C31.6423 15.3283 31.8893 14.7428 32.3833 14.2478C32.8772 13.7527 33.4627 13.5057 34.1398 13.5068ZM5.88812 13.5068C6.56411 13.5068 7.14964 13.7538 7.6447 14.2478C8.13976 14.7417 8.38673 15.3272 8.38562 16.0043V27.6327C8.38562 28.3608 8.13865 28.9591 7.6447 29.4276C7.15075 29.896 6.56522 30.1302 5.88812 30.1302C5.21102 30.1302 4.6255 29.896 4.13155 29.4276C3.6376 28.9591 3.39062 28.3608 3.39062 27.6327V16.0043C3.39062 15.3283 3.6376 14.7428 4.13155 14.2478C4.6255 13.7527 5.21102 13.5057 5.88812 13.5068ZM10.024 30.1302V13.5068H30.004V30.1302C30.004 30.5986 29.848 30.9888 29.5361 31.3007C29.2242 31.6126 28.834 31.7685 28.3656 31.7685H26.649V37.6227C26.649 38.3508 26.402 38.9491 25.9081 39.4176C25.4141 39.886 24.8286 40.1202 24.1515 40.1202C23.4744 40.1202 22.8889 39.886 22.3949 39.4176C21.901 38.9491 21.654 38.3508 21.654 37.6227V31.7685H18.3756V37.6227C18.3756 38.3508 18.1286 38.9491 17.6347 39.4176C17.1407 39.886 16.5552 40.1202 15.8781 40.1202C15.201 40.1202 14.6155 39.886 14.1215 39.4176C13.6276 38.9491 13.3806 38.3508 13.3806 37.6227V31.7685H11.664C11.1956 31.7685 10.8054 31.6126 10.4935 31.3007C10.1816 30.9888 10.0256 30.5986 10.0256 30.1302H10.024Z" fill="#333333"/>
</g>
<defs>
<clipPath id="clip0_2437_486595">
<rect width="39.9999" height="39.9999" fill="white" transform="translate(0 0.120239)"/>
</clipPath>
</defs>
</svg>
