<svg width="244" height="157" viewBox="0 0 244 157" fill="none" xmlns="http://www.w3.org/2000/svg">
<path fill-rule="evenodd" clip-rule="evenodd" d="M138.108 62.7426H138.081C138.055 62.7425 138.029 62.7424 138.003 62.742C137.998 62.7416 137.993 62.7416 137.988 62.7415L138.003 62.742C135.8 62.7125 133.687 61.4938 132.616 59.3948C132.615 59.3926 132.614 59.3904 132.613 59.3881L124.094 42.6419L130.988 29.1015L138.094 43.0714L153.253 13.2736L133.462 13.2737C130.072 13.2737 127.323 10.5249 127.323 7.13402V7.11353C127.323 3.72269 130.072 0.973877 133.462 0.973877H163.113C166.503 0.973877 169.252 3.72269 169.252 7.11353L169.252 7.15569C169.299 8.18314 169.089 9.23661 168.59 10.2188L143.577 59.3881L143.573 59.3948C142.505 61.489 140.399 62.707 138.201 62.7418C138.196 62.7415 138.192 62.7416 138.187 62.7417L138.201 62.7418C138.17 62.7423 138.139 62.7425 138.108 62.7426Z" fill="url(#paint0_linear_3242_499566)"/>
<path fill-rule="evenodd" clip-rule="evenodd" d="M134.52 0.973877L159.867 0.973877L153.19 13.2737H134.52V0.973877Z" fill="url(#paint1_linear_3242_499566)"/>
<path fill-rule="evenodd" clip-rule="evenodd" d="M145.126 0.973877C143.917 1.02046 142.779 1.36504 141.713 2.00761C140.647 2.65018 139.731 3.70495 138.964 5.17192L138.981 5.13991L111.387 59.3833C110.301 61.5183 108.14 62.746 105.901 62.7425C103.662 62.746 101.502 61.5183 100.416 59.3833L75.4127 10.2329C74.7948 9.01824 74.6184 7.69448 74.8241 6.44519C75.1611 3.36802 77.7649 0.973877 80.927 0.973877H112.93C115.485 0.973877 117.675 2.53678 118.6 4.76011L119.905 7.32575L113.011 20.8663L109.148 13.2736H90.7418L105.901 43.0734L125.352 4.83796C126.558 2.46705 128.993 0.973877 131.653 0.973877H145.126Z" fill="url(#paint2_linear_3242_499566)"/>
<path fill-rule="evenodd" clip-rule="evenodd" d="M145.124 0.973877C143.915 1.02046 142.777 1.36504 141.712 2.00761C140.688 2.62448 139.803 3.62123 139.055 4.99786L138.973 5.15182L121.375 39.7456L110.707 33.6234L125.35 4.83796C126.557 2.46705 128.991 0.973877 131.651 0.973877H145.124Z" fill="url(#paint3_linear_3242_499566)"/>
<path fill-rule="evenodd" clip-rule="evenodd" d="M30.113 91.6965C31.2471 91.6965 32.1664 92.6159 32.1664 93.7499V120.445C32.1664 121.545 31.3019 122.443 30.2155 122.496L30.1119 122.499C29.4442 122.499 28.851 122.18 28.4759 121.686L17.8725 111.085L19.597 109.363L19.6749 109.29C19.969 109.031 20.3549 108.874 20.7776 108.874C21.2326 108.874 21.645 109.056 21.946 109.351L22.0189 109.427L22.0211 109.424L28.0583 115.46L28.0585 93.7499C28.0585 92.6502 28.923 91.7524 30.0095 91.699L30.113 91.6965ZM3.41189 91.6965C4.54595 91.6965 5.46529 92.6159 5.46529 93.7499L5.4649 115.509L15.3098 105.667C15.719 105.258 16.2576 105.058 16.7937 105.066C17.29 105.062 17.7873 105.237 18.1811 105.59L18.263 105.667L20.02 107.424C19.5164 107.546 19.0365 107.791 18.6285 108.159L18.5083 108.274L7.21169 119.557L7.21857 119.564L4.96136 121.821C4.90829 121.875 4.85305 121.924 4.79593 121.97L4.70885 122.036C4.38508 122.302 3.97858 122.469 3.53404 122.495L3.41082 122.499C2.27676 122.499 1.35742 121.579 1.35742 120.445V93.7499C1.35742 92.6502 2.22189 91.7524 3.30833 91.699L3.41189 91.6965ZM41.4091 120.445C41.4091 121.545 40.5446 122.443 39.4582 122.496L39.3546 122.499C38.2206 122.499 37.3012 121.579 37.3012 120.445V108.638C37.3012 106.37 39.14 104.531 41.4082 104.531L42.0535 104.531C41.6763 105.071 41.444 105.72 41.4127 106.422L41.4091 106.584V120.445ZM59.6378 91.6965C64.317 91.6965 68.1102 95.489 68.1102 100.167C68.1102 104.845 64.317 108.638 59.6378 108.638H42.9493L42.9496 106.584C42.9496 105.485 43.8142 104.587 44.901 104.533L44.9828 104.531H59.6378C62.0483 104.531 64.0024 102.577 64.0024 100.167C64.0024 97.7849 62.0929 95.8485 59.7207 95.8043L59.6378 95.8035H39.3547C38.2206 95.8035 37.3012 94.8841 37.3012 93.75C37.3012 92.6159 38.2206 91.6965 39.3547 91.6965H59.6378ZM92.5209 105.044L92.7574 105.044C97.5784 105.044 101.487 108.951 101.487 113.771C101.487 118.591 97.5784 122.499 92.7574 122.499H72.7311C71.597 122.499 70.6776 121.579 70.6776 120.445C70.6776 119.311 71.597 118.392 72.7311 118.392H92.7574C95.2814 118.392 97.3327 116.369 97.378 113.856L97.3788 113.771C97.3786 110.086 95.437 106.855 92.5209 105.044ZM99.4332 91.6965C100.567 91.6965 101.487 92.6159 101.487 93.75C101.487 94.8841 100.567 95.8035 99.4332 95.8035H79.4069C76.8829 95.8035 74.8315 97.8264 74.7863 100.339L74.7855 100.424C74.7855 102.947 76.8088 104.998 79.322 105.043L87.1091 105.044L87.275 105.046C90.5234 105.106 93.338 106.941 94.79 109.621C94.2006 109.332 93.5403 109.164 92.8423 109.152L92.7574 109.151H79.4069C74.5858 109.151 70.6776 105.244 70.6776 100.424C70.6776 95.6039 74.5858 91.6965 79.4069 91.6965H99.4332ZM135.89 91.6965C144.398 91.6965 151.294 98.5918 151.294 107.098C151.294 115.603 144.398 122.499 135.89 122.499C127.382 122.499 120.486 115.603 120.486 107.098C120.486 98.5918 127.382 91.6965 135.89 91.6965ZM135.89 95.8035C129.651 95.8035 124.593 100.86 124.593 107.098C124.593 113.335 129.651 118.392 135.89 118.392C142.129 118.392 147.187 113.335 147.187 107.098C147.187 100.86 142.129 95.8035 135.89 95.8035ZM168.753 91.6965C169.887 91.6965 170.807 92.6159 170.807 93.75C170.807 94.8841 169.887 95.8035 168.753 95.8035H165.672C162.303 95.8035 159.565 98.5067 159.511 101.862L159.51 101.964L159.51 104.274L168.753 104.274C169.853 104.274 170.751 105.139 170.804 106.225L170.807 106.328C170.807 107.462 169.888 108.381 168.753 108.381L159.51 108.381L159.51 120.445C159.51 121.579 158.591 122.499 157.456 122.499C156.322 122.499 155.402 121.579 155.402 120.445V101.964C155.402 96.2934 160 91.6965 165.672 91.6965H168.753ZM186.212 91.6965C187.346 91.6965 188.265 92.6159 188.265 93.75C188.265 94.8841 187.346 95.8035 186.212 95.8035H183.13C179.761 95.8035 177.024 98.5067 176.969 101.862L176.968 104.274L186.212 104.274C187.312 104.274 188.209 105.139 188.263 106.225L188.265 106.328C188.265 107.462 187.346 108.381 186.212 108.381L176.968 108.381L176.969 120.445C176.969 121.579 176.049 122.499 174.915 122.499C173.78 122.499 172.861 121.579 172.861 120.445V101.964C172.861 96.2934 177.459 91.6965 183.13 91.6965H186.212ZM193.4 98.627C194.535 98.627 195.454 99.5464 195.454 100.68V120.445C195.454 121.545 194.59 122.443 193.503 122.496L193.4 122.499C192.266 122.499 191.346 121.579 191.346 120.445V100.68C191.346 99.5464 192.266 98.627 193.4 98.627ZM193.4 91.6965C194.5 91.6965 195.398 92.561 195.452 93.6474L195.454 93.7501C195.454 94.8498 194.59 95.7476 193.503 95.801L193.4 95.8035C192.3 95.8035 191.402 94.939 191.349 93.8526L191.346 93.7499C191.346 92.6159 192.266 91.6965 193.4 91.6965ZM210.345 102.734C206.134 102.734 202.712 106.113 202.644 110.307L202.643 110.435C202.643 114.645 206.023 118.066 210.218 118.134L210.345 118.135H214.967C216.101 118.135 217.02 119.054 217.02 120.189C217.02 121.323 216.101 122.242 214.967 122.242H210.345C203.823 122.242 198.535 116.956 198.535 110.435C198.535 103.913 203.823 98.627 210.345 98.627H214.967C216.101 98.627 217.02 99.5464 217.02 100.681C217.02 101.815 216.101 102.734 214.967 102.734H210.345ZM234.081 103.427L233.843 103.322L233.653 103.246L233.429 103.164L233.123 103.064L232.92 103.006L232.844 102.986L232.636 102.934L232.516 102.907L232.217 102.848L232.033 102.819L231.863 102.796L231.722 102.779L231.496 102.758L231.329 102.746L231.022 102.735L230.884 102.734C226.631 102.734 223.182 106.182 223.182 110.435C223.182 114.687 226.631 118.135 230.884 118.135L231.128 118.131L231.317 118.123L231.573 118.104L231.786 118.083L231.899 118.069L232.054 118.047L232.218 118.02L232.446 117.977L232.689 117.923L232.844 117.884L233.088 117.815L233.192 117.783L233.296 117.75L233.261 117.761L233.351 117.732L233.494 117.682L233.635 117.63L233.902 117.522L234.124 117.423L234.341 117.318L234.431 117.272L234.61 117.176L234.744 117.1L234.757 117.091L234.787 117.075C235.766 116.498 236.606 115.712 237.246 114.777L237.371 114.588C237.452 114.462 237.547 114.342 237.658 114.231C238.46 113.429 239.761 113.429 240.563 114.231C241.208 114.876 241.334 115.843 240.942 116.614L240.89 116.71C239.927 118.242 238.621 119.537 237.081 120.488L236.819 120.645L236.625 120.756C236.521 120.814 236.416 120.87 236.311 120.925L236.088 121.037L235.906 121.125L235.71 121.215L235.444 121.33L235.282 121.396L235.077 121.476L234.832 121.566L234.59 121.649L234.354 121.724L234.054 121.812L233.762 121.889L233.493 121.953L233.126 122.03L232.885 122.073L232.662 122.109L232.42 122.143L232.19 122.171L232.025 122.188L231.799 122.207L231.631 122.219L231.366 122.232L231.106 122.24L230.884 122.242C224.362 122.242 219.074 116.956 219.074 110.435C219.074 103.913 224.362 98.627 230.884 98.627L231.148 98.6299L231.45 98.6404L231.661 98.6521L232.022 98.6811C232.292 98.7069 232.56 98.7418 232.824 98.7855L233.008 98.8174L233.296 98.8734L233.501 98.9178C233.617 98.9441 233.733 98.972 233.847 99.0017L234.023 99.0485L234.295 99.127L234.626 99.2318L234.99 99.3601L235.213 99.4453L235.443 99.5386L235.682 99.6418L235.909 99.7457L236.1 99.8378L236.298 99.9376L236.466 100.027L236.642 100.123L236.899 100.271L237.103 100.394L237.38 100.572C237.564 100.693 237.744 100.819 237.921 100.951L238.234 101.191L238.439 101.358L238.7 101.582C238.777 101.65 238.853 101.719 238.928 101.789L239.055 101.909L239.223 102.073L239.368 102.22L239.585 102.45L239.767 102.653L239.838 102.735L240.004 102.932L240.144 103.105C241.426 104.722 242.294 106.682 242.586 108.826L242.618 109.084C242.633 109.189 242.641 109.298 242.641 109.408C242.641 110.508 241.777 111.405 240.69 111.459L240.587 111.461L230.817 111.461L230.817 111.461L227.033 111.461C225.899 111.461 224.979 110.542 224.979 109.408C224.979 108.274 225.899 107.354 227.033 107.354L237.945 107.354C237.39 106.083 236.501 104.991 235.39 104.188L235.224 104.072C235.06 103.96 234.892 103.854 234.72 103.755L234.656 103.719L234.481 103.624L234.318 103.54L234.081 103.427Z" fill="#333333"/>
<path d="M12.4996 141.091L12.8509 141.753C11.6483 142.266 10.2971 142.577 8.81082 142.658V145.307H13.3373V145.996H11.8375V153.319H11.1214V145.996H8.81082V147.779C8.74326 150.076 8.22981 151.9 7.28398 153.252L6.75701 152.698C7.59475 151.522 8.04064 149.887 8.09469 147.779V142.05C9.71612 142.01 11.1754 141.685 12.4996 141.091ZM1.24416 142.172H3.96005C3.75737 141.699 3.52767 141.267 3.27094 140.888L4.02761 140.753C4.2438 141.158 4.45999 141.631 4.66267 142.172H7.27046V142.874H1.24416V142.172ZM1.12255 145.239H2.75749C2.5413 144.658 2.28457 144.104 1.96029 143.591L2.60886 143.334C2.90612 143.874 3.17636 144.509 3.41957 145.239H5.05451C5.36529 144.631 5.63552 143.982 5.86523 143.293L6.52731 143.523C6.28409 144.172 6.01386 144.739 5.71659 145.239H7.36505V145.928H4.67618V147.658H7.12183V148.333H4.67618V152.306C4.67618 152.981 4.32487 153.319 3.62225 153.319H2.8791L2.71695 152.63C2.94666 152.657 3.16285 152.684 3.37904 152.684C3.75737 152.684 3.94654 152.495 3.94654 152.144V148.333H1.31172V147.658H3.94654V145.928H1.12255V145.239ZM2.37916 149.171L3.05475 149.306C2.68993 150.684 2.16297 151.873 1.48737 152.887L0.879335 152.495C1.55493 151.522 2.05487 150.414 2.37916 149.171ZM5.98683 149.063C6.43273 149.955 6.78403 150.779 7.02725 151.522L6.4057 151.765C6.12195 150.901 5.77064 150.049 5.36529 149.225L5.98683 149.063ZM58.0347 146.374H55.1431V147.617H58.3995V148.252H55.1431V149.59H58.7778V150.225H55.1431V151.738H54.4135V150.225H51.2652V149.59H54.4135V148.252H51.6706V147.617H54.4135V146.374H51.9543V145.725H54.4135V144.469H51.2922V143.847H54.4135V142.577H51.9543V141.942H54.4135V140.915H55.1431V141.942H58.0347V143.847H59.021V144.469H58.0347V146.374ZM55.1431 142.577V143.847H57.332V142.577H55.1431ZM55.1431 144.469V145.725H57.332V144.469H55.1431ZM54.6972 152.265C56.143 152.265 57.6428 152.238 59.1832 152.211L59.0481 152.914H55.0215C52.6164 152.914 50.9004 152.549 49.8735 151.846C49.6708 151.684 49.4816 151.522 49.3195 151.333C48.8601 152.008 48.2926 152.603 47.644 153.103L47.1711 152.495C47.8467 152.008 48.4142 151.427 48.8466 150.752C48.3061 149.995 47.8737 149.009 47.5359 147.806L48.144 147.577C48.4547 148.631 48.806 149.482 49.1979 150.13C49.7113 149.09 50.0086 147.847 50.0897 146.415H47.5629V145.847C48.3872 144.78 49.1438 143.631 49.8465 142.415H47.4684V141.712H50.6707V142.32C49.941 143.645 49.2249 144.78 48.5223 145.739H50.7788V146.198C50.7247 147.995 50.3464 149.522 49.6573 150.779C49.9005 151.063 50.1707 151.279 50.441 151.441C51.3868 151.968 52.8056 152.238 54.6972 152.265ZM94.1385 141.753H103.705V142.483H98.8406V143.455C98.8271 144.347 98.7595 145.185 98.6514 145.969H104.84V146.685H100.557V151.698C100.557 152.13 100.773 152.36 101.219 152.36H103.083C103.475 152.36 103.745 152.265 103.908 152.09C104.124 151.873 104.259 151.225 104.326 150.157L105.016 150.387C104.921 151.63 104.718 152.4 104.421 152.698C104.178 152.927 103.772 153.049 103.232 153.049H101.003C100.219 153.049 99.827 152.644 99.827 151.846V146.685H98.5433C98.3271 147.874 97.9758 148.887 97.5164 149.752C96.6922 151.211 95.341 152.36 93.4629 153.198L93.0305 152.549C94.8951 151.725 96.2058 150.603 96.9895 149.171C97.3408 148.441 97.5975 147.617 97.7867 146.685H93.2061V145.969H97.9083C98.0164 145.185 98.0839 144.347 98.0974 143.455V142.483H94.1385V141.753ZM139.444 141.55H143.43V142.131C142.997 143.401 142.498 144.699 141.93 146.05C142.808 147.198 143.281 148.279 143.349 149.279C143.335 149.82 143.187 150.211 142.903 150.455C142.525 150.752 141.862 150.914 140.917 150.928L140.687 150.171C140.836 150.198 140.971 150.211 141.079 150.211C141.687 150.184 142.092 150.103 142.295 149.968C142.511 149.833 142.619 149.603 142.619 149.279C142.619 148.347 142.133 147.306 141.173 146.158C141.822 144.712 142.322 143.401 142.673 142.239H140.173V153.265H139.444V141.55ZM144.903 144.726V146.482H149.199V144.726H144.903ZM149.199 144.063V142.266H144.903V144.063H149.199ZM146.686 147.158H144.903V152.09C145.794 151.846 146.659 151.509 147.524 151.09L147.7 151.792C146.754 152.225 145.551 152.63 144.092 153.022L143.93 152.387C144.092 152.333 144.173 152.252 144.173 152.117V141.564H149.929V147.158H147.362C147.537 148.049 147.835 148.86 148.254 149.59C148.983 149.225 149.672 148.658 150.321 147.874L150.794 148.347C150.159 149.13 149.429 149.725 148.605 150.13C149.253 151.076 150.132 151.86 151.213 152.508L150.807 153.143C148.537 151.711 147.173 149.711 146.686 147.158ZM184.938 141.807H196.923V142.523H195.086V151.9C195.086 152.738 194.667 153.157 193.843 153.157H191.613L191.451 152.454C192.194 152.481 192.91 152.508 193.586 152.508C194.086 152.508 194.343 152.238 194.343 151.711V142.523H184.938V141.807ZM191.627 144.82V149.603H187.276V150.833H186.573V144.82H191.627ZM187.276 148.928H190.924V145.482H187.276V148.928ZM232.392 148.576V150.036H235.757V148.576H232.392ZM235.757 147.928V146.442H232.392V147.928H235.757ZM232.392 150.671V153.279H231.676V145.779H236.473V152.171C236.473 152.846 236.121 153.184 235.446 153.184H234.338L234.162 152.495L235.216 152.535C235.568 152.535 235.757 152.36 235.757 152.022V150.671H232.392ZM241.297 146.766H239.054C238.324 146.766 237.959 146.388 237.959 145.631V140.956H238.675V142.847C240.243 142.604 241.499 142.347 242.445 142.077L242.688 142.739C241.526 143.037 240.189 143.293 238.675 143.523V145.482C238.675 145.888 238.864 146.09 239.27 146.09H241.161C241.459 146.09 241.661 146.023 241.796 145.888C241.959 145.685 242.053 145.131 242.107 144.226L242.796 144.455C242.715 145.536 242.553 146.198 242.31 146.455C242.094 146.658 241.756 146.766 241.297 146.766ZM238.675 149.779V151.927C238.675 152.238 238.851 152.4 239.229 152.4H241.215C241.54 152.4 241.756 152.319 241.891 152.184C242.053 151.995 242.161 151.454 242.215 150.563L242.891 150.779C242.81 151.846 242.634 152.508 242.391 152.765C242.175 152.954 241.837 153.049 241.351 153.049H239.013C238.31 153.049 237.959 152.725 237.959 152.076V147.333H238.675V149.117C240.094 148.968 241.351 148.725 242.445 148.387L242.688 149.063C241.445 149.414 240.108 149.657 238.675 149.779ZM235.473 141.888C236.311 142.996 236.959 143.969 237.405 144.807L236.811 145.226C236.648 144.928 236.486 144.617 236.297 144.307C234.851 144.536 233.095 144.712 231.041 144.82L230.838 144.185C230.973 144.145 231.082 144.077 231.176 143.996C232.027 143.172 232.757 142.158 233.379 140.956L234.081 141.158C233.406 142.456 232.662 143.455 231.879 144.145C233.162 144.091 234.527 143.955 235.959 143.766C235.635 143.28 235.284 142.766 234.905 142.253L235.473 141.888Z" fill="black"/>
<defs>
<linearGradient id="paint0_linear_3242_499566" x1="146.676" y1="0.973877" x2="146.676" y2="62.7426" gradientUnits="userSpaceOnUse">
<stop stop-color="#FF1C1F"/>
<stop offset="1" stop-color="#FF4A04"/>
</linearGradient>
<linearGradient id="paint1_linear_3242_499566" x1="138.651" y1="6.09025" x2="153.162" y2="13.2726" gradientUnits="userSpaceOnUse">
<stop stop-color="#BD0000"/>
<stop offset="0.770833" stop-color="#BD0000" stop-opacity="0"/>
</linearGradient>
<linearGradient id="paint2_linear_3242_499566" x1="109.934" y1="0.973877" x2="109.934" y2="62.7425" gradientUnits="userSpaceOnUse">
<stop stop-color="#FF1C1F"/>
<stop offset="1" stop-color="#FF4A04"/>
</linearGradient>
<linearGradient id="paint3_linear_3242_499566" x1="127.916" y1="0.973877" x2="127.916" y2="27.9511" gradientUnits="userSpaceOnUse">
<stop stop-color="#FF9825"/>
<stop offset="1" stop-color="#FF9825" stop-opacity="0"/>
</linearGradient>
</defs>
</svg>
